<?xml version="1.0" encoding="UTF-8"?>
<svg id="Layer_2" data-name="Layer 2" xmlns="http://www.w3.org/2000/svg" xmlns:xlink="http://www.w3.org/1999/xlink" viewBox="0 0 124.17 78.67">
  <defs>
    <style>
      .cls-1 {
        fill: url(#radial-gradient-8);
      }

      .cls-1, .cls-2, .cls-3, .cls-4, .cls-5, .cls-6, .cls-7, .cls-8, .cls-9, .cls-10, .cls-11, .cls-12, .cls-13, .cls-14, .cls-15 {
        stroke-width: 0px;
      }

      .cls-2 {
        fill: url(#radial-gradient-13);
      }

      .cls-3 {
        fill: url(#radial-gradient-12);
      }

      .cls-4 {
        fill: #fff;
      }

      .cls-5 {
        fill: url(#radial-gradient-2);
      }

      .cls-6 {
        fill: url(#radial-gradient-7);
      }

      .cls-7 {
        fill: url(#radial-gradient-5);
      }

      .cls-8 {
        fill: url(#radial-gradient);
      }

      .cls-9 {
        fill: url(#radial-gradient-10);
      }

      .cls-10 {
        fill: url(#radial-gradient-6);
      }

      .cls-11 {
        fill: url(#radial-gradient-9);
      }

      .cls-12 {
        fill: url(#radial-gradient-3);
      }

      .cls-13 {
        fill: url(#radial-gradient-11);
      }

      .cls-14 {
        fill: #fdf278;
      }

      .cls-15 {
        fill: url(#radial-gradient-4);
      }
    </style>
    <radialGradient id="radial-gradient" cx="38.32" cy="40.79" fx="38.32" fy="40.79" r="6.35" gradientUnits="userSpaceOnUse">
      <stop offset="0" stop-color="#4891ce"/>
      <stop offset="1" stop-color="#045ea9"/>
    </radialGradient>
    <radialGradient id="radial-gradient-2" cx="49.47" cy="43.01" fx="49.47" fy="43.01" r="5.43" xlink:href="#radial-gradient"/>
    <radialGradient id="radial-gradient-3" cx="59.53" cy="41.64" fx="59.53" fy="41.64" r="5.3" xlink:href="#radial-gradient"/>
    <radialGradient id="radial-gradient-4" cx="69.54" cy="43.01" fx="69.54" fy="43.01" r="5.43" xlink:href="#radial-gradient"/>
    <radialGradient id="radial-gradient-5" cx="80.8" cy="43" fx="80.8" fy="43" r="4.77" xlink:href="#radial-gradient"/>
    <radialGradient id="radial-gradient-6" cx="90.88" cy="43.01" fx="90.88" fy="43.01" r="5.16" xlink:href="#radial-gradient"/>
    <radialGradient id="radial-gradient-7" cx="34.3" cy="58.81" fx="34.3" fy="58.81" r="7.57" xlink:href="#radial-gradient"/>
    <radialGradient id="radial-gradient-8" cx="47.77" cy="61.04" fx="47.77" fy="61.04" r="4.8" xlink:href="#radial-gradient"/>
    <radialGradient id="radial-gradient-9" cx="58.44" cy="61.03" fx="58.44" fy="61.03" r="5.15" xlink:href="#radial-gradient"/>
    <radialGradient id="radial-gradient-10" cx="67.18" cy="59.64" fx="67.18" fy="59.64" r="5.3" xlink:href="#radial-gradient"/>
    <radialGradient id="radial-gradient-11" cx="77.34" cy="58.47" fx="77.34" fy="58.47" r="6.76" xlink:href="#radial-gradient"/>
    <radialGradient id="radial-gradient-12" cx="88.46" cy="61.04" fx="88.46" fy="61.04" r="4.8" xlink:href="#radial-gradient"/>
    <radialGradient id="radial-gradient-13" cx="98.52" cy="61" fx="98.52" fy="61" r="4.77" xlink:href="#radial-gradient"/>
  </defs>
  <g id="Layer_1-2" data-name="Layer 1">
    <g>
      <circle class="cls-14" cx="42.8" cy="30.55" r="30.55"/>
      <path class="cls-4" d="m110.61,38.28s0-.03,0-.05c0-18.15-14.72-32.87-32.87-32.87-14.09,0-26.1,8.87-30.78,21.32-3.59-3.04-8.23-4.89-13.31-4.89-9.98,0-18.31,7.1-20.2,16.53C5.61,41.33,0,48.93,0,57.8c0,11.48,9.39,20.87,20.87,20.87h82.43c11.48,0,20.87-9.39,20.87-20.87,0-8.91-5.67-16.54-13.57-19.52Z"/>
      <g>
        <g>
          <path class="cls-4" d="m41.89,36.55c-.29-.6-.69-1.1-1.2-1.48-.5-.39-1-.58-1.49-.58-.39,0-.73.16-1.03.47-.29.32-.48.84-.55,1.56-.04.45-.07.95-.09,1.5-.02.55-.04,1.12-.05,1.71,0,.29.04.46.1.49s.18.05.32.05h1.62c.27,0,.48-.04.65-.12.17-.08.31-.16.42-.25.11-.09.22-.17.31-.25.1-.08.21-.12.34-.12.21,0,.36.13.46.39.1.26.15.54.15.85s-.05.59-.15.85c-.1.26-.25.39-.46.39-.13,0-.23-.04-.33-.12-.09-.08-.2-.16-.32-.24s-.27-.16-.45-.24c-.18-.08-.42-.12-.71-.12h-1.55c-.11,0-.21.01-.28.04-.08.03-.12.18-.12.46.01.63.04,1.24.06,1.83.03.59.06,1.12.11,1.6.04.48.09.87.15,1.19.06.31.13.52.21.62.07.08.12.19.15.3.03.12.03.23,0,.35-.03.11-.09.21-.18.28-.09.08-.23.12-.41.12h-3.86c-.17,0-.3-.04-.39-.12-.09-.08-.15-.17-.18-.28-.03-.11-.03-.23,0-.35.03-.12.08-.22.15-.3.08-.1.15-.34.21-.74.06-.39.11-.87.15-1.45s.07-1.21.09-1.91c.02-.7.03-1.42.03-2.15s-.01-1.46-.03-2.16c-.02-.71-.05-1.35-.09-1.92s-.09-1.06-.15-1.45c-.06-.39-.13-.64-.21-.73-.07-.08-.12-.19-.15-.3-.03-.12-.03-.23,0-.35.03-.11.09-.21.18-.28.09-.08.22-.12.39-.12l8.71.02c.29,0,.55.11.78.34s.34.63.34,1.22v1.49c0,.24-.06.42-.19.56-.13.13-.28.2-.46.2-.17,0-.34-.06-.52-.18-.18-.12-.34-.31-.46-.58Z"/>
          <path class="cls-4" d="m54.62,45.56c0,.27.03.49.08.66.06.18.12.33.19.47.07.14.14.27.2.4.06.13.09.27.09.42,0,.2-.08.35-.24.46-.16.11-.52.17-1.08.17-.67,0-1.19-.11-1.54-.33-.36-.22-.62-.47-.79-.77-.45.31-.93.56-1.46.77-.53.2-1.01.3-1.46.3-1.02,0-1.82-.19-2.39-.57s-1-.86-1.27-1.46c-.27-.6-.44-1.26-.49-1.98-.06-.73-.09-1.43-.09-2.12s-.03-1.32-.06-1.89c-.04-.57-.16-1-.39-1.28-.18-.22-.21-.4-.07-.52s.33-.22.58-.28.52-.1.82-.12c.29-.01.5-.02.63-.02.25,0,.49.02.72.06.23.04.44.12.63.22.19.1.34.25.45.44.11.19.17.44.17.75s0,.69-.02,1.18c-.01.49-.01,1.02,0,1.59s.05,1.14.11,1.73c.06.59.15,1.12.28,1.59.13.47.32.85.56,1.16.24.3.54.45.9.45s.65-.19.87-.56c.22-.37.38-.84.48-1.42.1-.57.16-1.2.18-1.88.01-.68,0-1.32-.04-1.93s-.1-1.14-.19-1.59-.17-.73-.25-.84c-.18-.22-.21-.4-.07-.52.13-.13.33-.22.58-.28s.53-.1.82-.12c.29-.01.5-.02.63-.02.25,0,.49.02.72.06.23.04.44.12.63.22.19.1.34.25.45.44s.17.44.17.75c-.01,1.05-.02,2.09-.02,3.12v3.1Z"/>
          <path class="cls-4" d="m62.34,46.57c.15-.08.29-.13.4-.13.13,0,.22.04.29.1.07.07.11.15.13.24.01.09,0,.19-.05.3-.05.11-.14.21-.26.29-.41.28-.82.49-1.23.62-.41.13-.82.2-1.23.2-.6,0-1.1-.11-1.48-.34-.39-.22-.69-.52-.92-.89-.23-.37-.4-.79-.5-1.27-.11-.48-.18-.97-.21-1.48-.04-.51-.04-1.02-.02-1.52.02-.5.03-.96.03-1.37.01-1.12.01-1.95,0-2.48h-1.11c-.18,0-.27-.1-.27-.29v-.36c0-.11.07-.21.2-.28s.24-.15.33-.22l3.34-2.52c.14-.07.28-.1.42-.1.15,0,.29.04.4.12.11.08.17.2.17.37,0,.46,0,.88,0,1.26,0,.38-.01.75-.01,1.11h2.1c.18,0,.27.09.27.27v.36c0,.2-.09.29-.27.29h-2.1v2.6c0,.15,0,.39-.02.71-.01.32-.02.68-.02,1.07s.01.79.04,1.2.08.78.17,1.12c.08.34.2.62.34.84.14.22.33.33.57.33.18,0,.36-.06.55-.17Z"/>
          <path class="cls-4" d="m74.69,45.56c0,.27.03.49.08.66.06.18.12.33.19.47.07.14.14.27.2.4.06.13.09.27.09.42,0,.2-.08.35-.24.46-.16.11-.52.17-1.08.17-.67,0-1.19-.11-1.54-.33-.36-.22-.62-.47-.79-.77-.45.31-.93.56-1.46.77-.53.2-1.01.3-1.46.3-1.02,0-1.82-.19-2.39-.57s-1-.86-1.27-1.46c-.27-.6-.44-1.26-.49-1.98-.06-.73-.09-1.43-.09-2.12s-.03-1.32-.06-1.89c-.04-.57-.16-1-.39-1.28-.18-.22-.21-.4-.07-.52s.33-.22.58-.28.52-.1.82-.12c.29-.01.5-.02.63-.02.25,0,.49.02.72.06.23.04.44.12.63.22.19.1.34.25.45.44.11.19.17.44.17.75s0,.69-.02,1.18c-.01.49-.01,1.02,0,1.59s.05,1.14.11,1.73c.06.59.15,1.12.28,1.59.13.47.32.85.56,1.16.24.3.54.45.9.45s.65-.19.87-.56c.22-.37.38-.84.48-1.42.1-.57.16-1.2.18-1.88.01-.68,0-1.32-.04-1.93s-.1-1.14-.19-1.59-.17-.73-.25-.84c-.18-.22-.21-.4-.07-.52.13-.13.33-.22.58-.28s.53-.1.82-.12c.29-.01.5-.02.63-.02.25,0,.49.02.72.06.23.04.44.12.63.22.19.1.34.25.45.44s.17.44.17.75c-.01,1.05-.02,2.09-.02,3.12v3.1Z"/>
          <path class="cls-4" d="m80.89,47.16c.06.07.1.16.13.27.03.11.03.22.01.33-.02.1-.07.19-.16.26-.08.07-.21.1-.38.1h-3.53c-.17,0-.29-.03-.38-.1-.08-.07-.14-.16-.16-.26-.02-.1-.02-.21.01-.33.03-.11.07-.2.13-.27.08-.1.16-.35.22-.76.06-.41.12-.89.16-1.45s.07-1.16.08-1.81c.01-.64.01-1.26-.01-1.85-.02-.59-.07-1.11-.15-1.55-.08-.45-.18-.75-.3-.9-.18-.24-.21-.42-.07-.55.13-.13.33-.22.59-.28s.53-.1.82-.12c.29-.01.49-.02.62-.02.42,0,.81.06,1.17.19.36.13.6.38.72.76.34-.34.7-.58,1.1-.72.4-.15.8-.22,1.21-.22.59,0,1.12.14,1.58.43.47.29.76.67.87,1.14.04.18.01.39-.08.63-.1.24-.23.47-.4.69-.17.22-.36.41-.57.57-.21.15-.4.23-.57.23-.24,0-.4-.15-.48-.46-.18-.76-.4-1.3-.64-1.64-.25-.34-.49-.5-.75-.5-.32,0-.61.26-.85.78s-.38,1.2-.39,2.06c0,.55,0,1.11.01,1.68,0,.57.02,1.11.05,1.62.03.5.07.94.14,1.31.06.37.14.62.24.75Z"/>
          <path class="cls-4" d="m90.86,37.81c1.11,0,2.04.26,2.79.77.76.51,1.33,1.15,1.72,1.92.39.77.6,1.61.62,2.51.02.9-.15,1.74-.51,2.51s-.92,1.41-1.68,1.92c-.76.51-1.71.77-2.86.77s-2.15-.26-2.92-.77c-.77-.51-1.34-1.15-1.72-1.93-.38-.78-.56-1.61-.55-2.51.01-.9.21-1.73.6-2.5.39-.77.96-1.41,1.71-1.92.76-.51,1.69-.77,2.79-.77Zm1.74,5.17c-.1-.69-.23-1.29-.41-1.81-.18-.52-.37-.95-.59-1.3-.22-.35-.44-.61-.67-.79-.23-.17-.46-.26-.68-.26h-.1c-.41.06-.73.42-.98,1.09s-.28,1.68-.12,3.02c.08.73.22,1.37.4,1.91s.38,1,.6,1.36c.22.36.45.64.69.82.24.18.48.27.7.27h.11c.42-.07.75-.46.99-1.18.24-.71.26-1.76.06-3.15Z"/>
          <path class="cls-4" d="m36.75,64.71l-2.23-6.32c-.06-.18-.13-.27-.21-.27-.1,0-.17.09-.23.27l-2.25,6.32c-.08.31-.18.55-.28.74-.1.18-.25.32-.43.42-.18.1-.4.16-.66.2s-.58.05-.98.05h-2.42c-.17,0-.3-.04-.39-.12-.09-.08-.15-.17-.18-.28-.03-.11-.03-.23,0-.35.03-.12.08-.22.15-.3.08-.1.15-.34.21-.74s.11-.88.15-1.45.07-1.21.09-1.92c.02-.71.03-1.42.03-2.15s-.01-1.45-.03-2.15c-.02-.71-.05-1.35-.09-1.92s-.09-1.06-.15-1.45c-.06-.39-.13-.64-.21-.73-.07-.08-.12-.19-.15-.3-.03-.12-.03-.23,0-.35.03-.11.09-.21.18-.28.09-.08.22-.12.39-.12h3.86c.18,0,.32.04.41.12.09.08.15.17.18.28.03.11.03.23,0,.35-.03.12-.08.22-.15.3-.1.13-.19.44-.26.94-.08.5-.14,1.12-.18,1.85-.04.73-.07,1.52-.07,2.38,0,.86,0,1.7,0,2.53.01.62.06,1.04.14,1.28s.17.36.28.36.23-.1.37-.29c.13-.2.24-.41.33-.65l1.43-3.91c.1-.27.23-.46.39-.59s.33-.19.51-.19c.17,0,.33.06.49.19s.29.32.39.59l1.43,3.91c.08.24.19.46.33.65.13.2.25.29.37.29s.21-.12.28-.36c.08-.24.12-.67.14-1.28.01-.83.01-1.67,0-2.53s-.04-1.66-.08-2.38c-.04-.73-.1-1.34-.17-1.85s-.15-.82-.25-.94c-.06-.08-.1-.19-.14-.3-.04-.12-.04-.23,0-.35.03-.11.09-.21.18-.28.09-.08.23-.12.41-.12h3.86c.17,0,.3.04.39.12.09.08.15.17.18.28.03.11.03.23,0,.35-.03.12-.08.22-.15.3-.08.1-.15.34-.21.73-.06.39-.11.88-.15,1.45s-.07,1.21-.08,1.92-.02,1.42-.02,2.15,0,1.45.02,2.15.04,1.35.08,1.92.09,1.06.15,1.45c.06.39.13.64.21.74.07.08.12.19.15.3.03.12.03.24,0,.35-.03.11-.09.21-.18.28-.09.08-.22.12-.39.12h-2.41c-.39,0-.72-.02-.98-.05-.26-.04-.48-.1-.66-.2s-.33-.24-.44-.42c-.11-.18-.21-.43-.29-.74Z"/>
          <path class="cls-4" d="m47.04,62.74c.24.56.58.97,1.04,1.24.46.27.93.4,1.44.4.43,0,.85-.09,1.24-.28.39-.19.72-.47.99-.83.1-.15.19-.23.27-.23.07,0,.12.06.15.18.03.12.03.26,0,.43-.06.42-.21.78-.47,1.09-.26.31-.57.57-.93.78s-.77.37-1.22.47c-.45.1-.9.16-1.34.16-.84,0-1.57-.15-2.17-.44-.61-.29-1.12-.68-1.52-1.16-.41-.48-.71-1.02-.9-1.64s-.29-1.24-.29-1.87.1-1.27.29-1.88c.2-.61.5-1.15.9-1.63.41-.48.91-.86,1.52-1.16.61-.29,1.33-.44,2.17-.44s1.61.16,2.21.48c.61.32,1.07.73,1.38,1.22.31.49.46,1.02.45,1.6,0,.57-.2,1.11-.57,1.62s-.94.93-1.7,1.29c-.76.36-1.74.56-2.93.6Zm2.46-3.55c.06-.29.08-.58.07-.87s-.05-.54-.14-.76-.2-.4-.36-.54c-.15-.14-.35-.21-.59-.21-.21,0-.41.07-.59.21-.18.14-.35.32-.49.55-.15.22-.27.48-.38.77-.1.29-.19.58-.26.89-.2.94-.21,1.62-.03,2.04s.42.63.75.63c.18,0,.38-.06.58-.19.2-.13.4-.31.59-.55.19-.24.36-.52.51-.85.15-.33.27-.7.34-1.12Z"/>
          <path class="cls-4" d="m60.04,65.41v-.02l-.27.13c-.34.15-.72.3-1.15.43-.43.13-.89.2-1.37.2-.74,0-1.37-.1-1.87-.29-.5-.2-.91-.45-1.23-.77-.32-.31-.54-.68-.68-1.09s-.21-.83-.21-1.25c0-.45.07-.89.2-1.33.13-.44.36-.84.67-1.19.32-.35.73-.64,1.24-.86.51-.22,1.14-.34,1.88-.34.41,0,.8.07,1.19.2.38.13.7.32.96.56-.1-.53-.23-.97-.41-1.32-.18-.35-.37-.63-.59-.83-.22-.2-.45-.35-.69-.43s-.49-.13-.72-.13h-.25c-.08,0-.17.01-.25.04-.43.08-.78.13-1.05.13-.32,0-.53-.05-.63-.14-.1-.09-.15-.21-.15-.35,0-.15.08-.29.23-.4.15-.11.36-.2.62-.26.26-.06.56-.11.89-.14s.69-.04,1.07-.04c1.19,0,2.13.11,2.82.34.69.22,1.22.54,1.58.96.36.41.59.91.71,1.49s.21,1.22.27,1.91c.06.69.13,1.44.21,2.24.08.8.25,1.62.54,2.48.1.29.05.5-.14.63-.19.13-.46.19-.81.19-.38,0-.8-.07-1.28-.2-.48-.13-.92-.31-1.32-.54Zm-.48-2.69c0-.45-.04-.85-.13-1.21-.08-.36-.19-.66-.33-.9s-.29-.43-.46-.56c-.18-.13-.35-.19-.54-.19-.34,0-.64.23-.9.68-.27.46-.4,1.19-.4,2.2,0,.46.04.85.12,1.17.08.32.18.57.31.77s.28.34.45.43.34.14.53.14c.17,0,.33-.04.48-.13.15-.08.29-.22.42-.42.13-.2.23-.45.31-.78s.13-.72.13-1.2Z"/>
          <path class="cls-4" d="m69.99,64.57c.15-.08.29-.13.4-.13.13,0,.22.04.29.11s.11.15.13.24c.01.09,0,.19-.05.3-.05.11-.14.21-.26.29-.41.28-.82.49-1.23.62-.41.13-.82.2-1.23.2-.6,0-1.1-.11-1.48-.34-.39-.22-.69-.52-.92-.89-.23-.37-.4-.79-.5-1.27-.11-.48-.18-.97-.21-1.48-.04-.51-.04-1.02-.02-1.52.02-.5.03-.96.03-1.37.01-1.12.01-1.95,0-2.48h-1.11c-.18,0-.27-.1-.27-.29v-.36c0-.11.07-.21.2-.28.13-.08.24-.15.33-.22l3.34-2.52c.14-.07.28-.1.42-.1.15,0,.29.04.4.12.11.08.17.2.17.37,0,.46,0,.88,0,1.26,0,.38-.01.75-.01,1.11h2.1c.18,0,.27.09.27.27v.36c0,.2-.09.29-.27.29h-2.1v2.6c0,.15,0,.39-.02.71-.01.32-.02.68-.02,1.07s.01.79.04,1.2.08.78.17,1.12.2.62.34.84c.14.22.33.33.57.33.18,0,.36-.06.55-.17Z"/>
          <path class="cls-4" d="m75.68,55.87v.86c.32-.25.7-.45,1.13-.61s.9-.23,1.39-.23c1.01,0,1.79.19,2.35.58.56.38.98.88,1.26,1.47s.46,1.26.53,1.98c.07.73.11,1.44.13,2.12.01.69.04,1.31.07,1.87s.16.97.37,1.24c.07.07.12.16.14.27.02.11.02.22,0,.33-.02.11-.07.19-.16.26-.08.07-.2.11-.36.11h-3.53c-.17,0-.29-.04-.38-.11-.08-.07-.14-.16-.16-.26-.02-.1-.02-.21.01-.33.03-.11.07-.2.13-.27.08-.11.16-.39.23-.83.07-.44.12-.96.15-1.56.03-.6.02-1.24-.01-1.92-.04-.68-.12-1.3-.25-1.88s-.33-1.05-.58-1.42c-.25-.37-.58-.56-.99-.56s-.7.19-.93.57c-.23.38-.4.85-.49,1.43-.1.57-.15,1.2-.15,1.88s.02,1.32.07,1.93c.05.61.12,1.13.21,1.56.09.43.17.7.24.8.06.07.1.16.13.27.03.11.03.22.01.33-.02.11-.07.19-.16.26-.08.07-.21.11-.38.11h-3.53c-.17,0-.29-.04-.38-.11-.08-.07-.14-.16-.16-.26-.02-.1-.02-.21.01-.33.03-.11.07-.2.13-.27.06-.07.11-.3.17-.7.06-.4.1-.9.14-1.5.04-.6.07-1.28.09-2.04.03-.76.05-1.53.06-2.32s.01-1.57,0-2.33c-.01-.76-.04-1.46-.07-2.09-.04-.63-.08-1.16-.15-1.59-.06-.43-.14-.7-.24-.83-.18-.22-.21-.4-.07-.53.13-.13.33-.22.59-.28s.53-.1.82-.12c.29-.01.49-.02.62-.02.25,0,.5.02.74.06.24.04.45.12.63.22.18.1.33.26.44.45.11.2.17.45.17.76-.01.52-.02,1.08-.02,1.7v1.87Z"/>
          <path class="cls-4" d="m87.73,62.74c.24.56.58.97,1.04,1.24.46.27.93.4,1.44.4.43,0,.85-.09,1.24-.28.39-.19.72-.47.99-.83.1-.15.19-.23.27-.23.07,0,.12.06.15.18.03.12.03.26,0,.43-.06.42-.21.78-.47,1.09-.26.31-.57.57-.93.78s-.77.37-1.22.47c-.45.1-.9.16-1.34.16-.84,0-1.57-.15-2.17-.44-.61-.29-1.12-.68-1.52-1.16-.41-.48-.71-1.02-.9-1.64s-.29-1.24-.29-1.87.1-1.27.29-1.88c.2-.61.5-1.15.9-1.63.41-.48.91-.86,1.52-1.16.61-.29,1.33-.44,2.17-.44s1.61.16,2.21.48c.61.32,1.07.73,1.38,1.22.31.49.46,1.02.45,1.6,0,.57-.2,1.11-.57,1.62s-.94.93-1.7,1.29c-.76.36-1.74.56-2.93.6Zm2.46-3.55c.06-.29.08-.58.07-.87s-.05-.54-.14-.76-.2-.4-.36-.54c-.15-.14-.35-.21-.59-.21-.21,0-.41.07-.59.21-.18.14-.35.32-.49.55-.15.22-.27.48-.38.77-.1.29-.19.58-.26.89-.2.94-.21,1.62-.03,2.04s.42.63.75.63c.18,0,.38-.06.58-.19.2-.13.4-.31.59-.55.19-.24.36-.52.51-.85.15-.33.27-.7.34-1.12Z"/>
          <path class="cls-4" d="m98.61,65.16c.06.07.1.16.13.27.03.11.03.22.01.33-.02.11-.07.19-.16.26-.08.07-.21.11-.38.11h-3.53c-.17,0-.29-.04-.38-.11-.08-.07-.14-.16-.16-.26-.02-.1-.02-.21.01-.33.03-.11.07-.2.13-.27.08-.1.16-.35.22-.76.06-.41.12-.89.16-1.45.04-.56.07-1.16.08-1.81.01-.64.01-1.26-.01-1.85-.02-.59-.07-1.11-.15-1.55s-.18-.75-.3-.9c-.18-.24-.21-.42-.07-.55.13-.13.33-.22.59-.28.26-.06.53-.1.82-.12.29-.01.49-.02.62-.02.42,0,.81.06,1.17.19.36.13.6.38.72.76.34-.34.7-.58,1.1-.72.4-.15.8-.22,1.21-.22.59,0,1.12.14,1.58.43.47.29.76.67.87,1.14.04.18.01.39-.08.63-.1.24-.23.47-.4.69-.17.22-.36.41-.57.57s-.4.23-.57.23c-.24,0-.4-.15-.48-.46-.18-.76-.4-1.3-.64-1.64-.25-.34-.49-.5-.75-.5-.32,0-.61.26-.85.78-.25.52-.38,1.2-.39,2.06,0,.55,0,1.11.01,1.68,0,.57.02,1.11.05,1.62.03.5.07.94.14,1.31.06.37.14.62.24.75Z"/>
        </g>
        <g>
          <path class="cls-8" d="m41.89,36.55c-.29-.6-.69-1.1-1.2-1.48-.5-.39-1-.58-1.49-.58-.39,0-.73.16-1.03.47-.29.32-.48.84-.55,1.56-.04.45-.07.95-.09,1.5-.02.55-.04,1.12-.05,1.71,0,.29.04.46.1.49s.18.05.32.05h1.62c.27,0,.48-.04.65-.12.17-.08.31-.16.42-.25.11-.09.22-.17.31-.25.1-.08.21-.12.34-.12.21,0,.36.13.46.39.1.26.15.54.15.85s-.05.59-.15.85c-.1.26-.25.39-.46.39-.13,0-.23-.04-.33-.12-.09-.08-.2-.16-.32-.24s-.27-.16-.45-.24c-.18-.08-.42-.12-.71-.12h-1.55c-.11,0-.21.01-.28.04-.08.03-.12.18-.12.46.01.63.04,1.24.06,1.83.03.59.06,1.12.11,1.6.04.48.09.87.15,1.19.06.31.13.52.21.62.07.08.12.19.15.3.03.12.03.23,0,.35-.03.11-.09.21-.18.28-.09.08-.23.12-.41.12h-3.86c-.17,0-.3-.04-.39-.12-.09-.08-.15-.17-.18-.28-.03-.11-.03-.23,0-.35.03-.12.08-.22.15-.3.08-.1.15-.34.21-.74.06-.39.11-.87.15-1.45s.07-1.21.09-1.91c.02-.7.03-1.42.03-2.15s-.01-1.46-.03-2.16c-.02-.71-.05-1.35-.09-1.92s-.09-1.06-.15-1.45c-.06-.39-.13-.64-.21-.73-.07-.08-.12-.19-.15-.3-.03-.12-.03-.23,0-.35.03-.11.09-.21.18-.28.09-.08.22-.12.39-.12l8.71.02c.29,0,.55.11.78.34s.34.63.34,1.22v1.49c0,.24-.06.42-.19.56-.13.13-.28.2-.46.2-.17,0-.34-.06-.52-.18-.18-.12-.34-.31-.46-.58Z"/>
          <path class="cls-5" d="m54.62,45.56c0,.27.03.49.08.66.06.18.12.33.19.47.07.14.14.27.2.4.06.13.09.27.09.42,0,.2-.08.35-.24.46-.16.11-.52.17-1.08.17-.67,0-1.19-.11-1.54-.33-.36-.22-.62-.47-.79-.77-.45.31-.93.56-1.46.77-.53.2-1.01.3-1.46.3-1.02,0-1.82-.19-2.39-.57s-1-.86-1.27-1.46c-.27-.6-.44-1.26-.49-1.98-.06-.73-.09-1.43-.09-2.12s-.03-1.32-.06-1.89c-.04-.57-.16-1-.39-1.28-.18-.22-.21-.4-.07-.52s.33-.22.58-.28.52-.1.82-.12c.29-.01.5-.02.63-.02.25,0,.49.02.72.06.23.04.44.12.63.22.19.1.34.25.45.44.11.19.17.44.17.75s0,.69-.02,1.18c-.01.49-.01,1.02,0,1.59s.05,1.14.11,1.73c.06.59.15,1.12.28,1.59.13.47.32.85.56,1.16.24.3.54.45.9.45s.65-.19.87-.56c.22-.37.38-.84.48-1.42.1-.57.16-1.2.18-1.88.01-.68,0-1.32-.04-1.93s-.1-1.14-.19-1.59-.17-.73-.25-.84c-.18-.22-.21-.4-.07-.52.13-.13.33-.22.58-.28s.53-.1.82-.12c.29-.01.5-.02.63-.02.25,0,.49.02.72.06.23.04.44.12.63.22.19.1.34.25.45.44s.17.44.17.75c-.01,1.05-.02,2.09-.02,3.12v3.1Z"/>
          <path class="cls-12" d="m62.34,46.57c.15-.08.29-.13.4-.13.13,0,.22.04.29.1.07.07.11.15.13.24.01.09,0,.19-.05.3-.05.11-.14.21-.26.29-.41.28-.82.49-1.23.62-.41.13-.82.2-1.23.2-.6,0-1.1-.11-1.48-.34-.39-.22-.69-.52-.92-.89-.23-.37-.4-.79-.5-1.27-.11-.48-.18-.97-.21-1.48-.04-.51-.04-1.02-.02-1.52.02-.5.03-.96.03-1.37.01-1.12.01-1.95,0-2.48h-1.11c-.18,0-.27-.1-.27-.29v-.36c0-.11.07-.21.2-.28s.24-.15.33-.22l3.34-2.52c.14-.07.28-.1.42-.1.15,0,.29.04.4.12.11.08.17.2.17.37,0,.46,0,.88,0,1.26,0,.38-.01.75-.01,1.11h2.1c.18,0,.27.09.27.27v.36c0,.2-.09.29-.27.29h-2.1v2.6c0,.15,0,.39-.02.71-.01.32-.02.68-.02,1.07s.01.79.04,1.2.08.78.17,1.12c.08.34.2.62.34.84.14.22.33.33.57.33.18,0,.36-.06.55-.17Z"/>
          <path class="cls-15" d="m74.69,45.56c0,.27.03.49.08.66.06.18.12.33.19.47.07.14.14.27.2.4.06.13.09.27.09.42,0,.2-.08.35-.24.46-.16.11-.52.17-1.08.17-.67,0-1.19-.11-1.54-.33-.36-.22-.62-.47-.79-.77-.45.31-.93.56-1.46.77-.53.2-1.01.3-1.46.3-1.02,0-1.82-.19-2.39-.57s-1-.86-1.27-1.46c-.27-.6-.44-1.26-.49-1.98-.06-.73-.09-1.43-.09-2.12s-.03-1.32-.06-1.89c-.04-.57-.16-1-.39-1.28-.18-.22-.21-.4-.07-.52s.33-.22.58-.28.52-.1.82-.12c.29-.01.5-.02.63-.02.25,0,.49.02.72.06.23.04.44.12.63.22.19.1.34.25.45.44.11.19.17.44.17.75s0,.69-.02,1.18c-.01.49-.01,1.02,0,1.59s.05,1.14.11,1.73c.06.59.15,1.12.28,1.59.13.47.32.85.56,1.16.24.3.54.45.9.45s.65-.19.87-.56c.22-.37.38-.84.48-1.42.1-.57.16-1.2.18-1.88.01-.68,0-1.32-.04-1.93s-.1-1.14-.19-1.59-.17-.73-.25-.84c-.18-.22-.21-.4-.07-.52.13-.13.33-.22.58-.28s.53-.1.82-.12c.29-.01.5-.02.63-.02.25,0,.49.02.72.06.23.04.44.12.63.22.19.1.34.25.45.44s.17.44.17.75c-.01,1.05-.02,2.09-.02,3.12v3.1Z"/>
          <path class="cls-7" d="m80.89,47.16c.06.07.1.16.13.27.03.11.03.22.01.33-.02.1-.07.19-.16.26-.08.07-.21.1-.38.1h-3.53c-.17,0-.29-.03-.38-.1-.08-.07-.14-.16-.16-.26-.02-.1-.02-.21.01-.33.03-.11.07-.2.13-.27.08-.1.16-.35.22-.76.06-.41.12-.89.16-1.45s.07-1.16.08-1.81c.01-.64.01-1.26-.01-1.85-.02-.59-.07-1.11-.15-1.55-.08-.45-.18-.75-.3-.9-.18-.24-.21-.42-.07-.55.13-.13.33-.22.59-.28s.53-.1.82-.12c.29-.01.49-.02.62-.02.42,0,.81.06,1.17.19.36.13.6.38.72.76.34-.34.7-.58,1.1-.72.4-.15.8-.22,1.21-.22.59,0,1.12.14,1.58.43.47.29.76.67.87,1.14.04.18.01.39-.08.63-.1.24-.23.47-.4.69-.17.22-.36.41-.57.57-.21.15-.4.23-.57.23-.24,0-.4-.15-.48-.46-.18-.76-.4-1.3-.64-1.64-.25-.34-.49-.5-.75-.5-.32,0-.61.26-.85.78s-.38,1.2-.39,2.06c0,.55,0,1.11.01,1.68,0,.57.02,1.11.05,1.62.03.5.07.94.14,1.31.06.37.14.62.24.75Z"/>
          <path class="cls-10" d="m90.86,37.81c1.11,0,2.04.26,2.79.77.76.51,1.33,1.15,1.72,1.92.39.77.6,1.61.62,2.51.02.9-.15,1.74-.51,2.51s-.92,1.41-1.68,1.92c-.76.51-1.71.77-2.86.77s-2.15-.26-2.92-.77c-.77-.51-1.34-1.15-1.72-1.93-.38-.78-.56-1.61-.55-2.51.01-.9.21-1.73.6-2.5.39-.77.96-1.41,1.71-1.92.76-.51,1.69-.77,2.79-.77Zm1.74,5.17c-.1-.69-.23-1.29-.41-1.81-.18-.52-.37-.95-.59-1.3-.22-.35-.44-.61-.67-.79-.23-.17-.46-.26-.68-.26h-.1c-.41.06-.73.42-.98,1.09s-.28,1.68-.12,3.02c.08.73.22,1.37.4,1.91s.38,1,.6,1.36c.22.36.45.64.69.82.24.18.48.27.7.27h.11c.42-.07.75-.46.99-1.18.24-.71.26-1.76.06-3.15Z"/>
          <path class="cls-6" d="m36.75,64.71l-2.23-6.32c-.06-.18-.13-.27-.21-.27-.1,0-.17.09-.23.27l-2.25,6.32c-.08.31-.18.55-.28.74-.1.18-.25.32-.43.42-.18.1-.4.16-.66.2s-.58.05-.98.05h-2.42c-.17,0-.3-.04-.39-.12-.09-.08-.15-.17-.18-.28-.03-.11-.03-.23,0-.35.03-.12.08-.22.15-.3.08-.1.15-.34.21-.74s.11-.88.15-1.45.07-1.21.09-1.92c.02-.71.03-1.42.03-2.15s-.01-1.45-.03-2.15c-.02-.71-.05-1.35-.09-1.92s-.09-1.06-.15-1.45c-.06-.39-.13-.64-.21-.73-.07-.08-.12-.19-.15-.3-.03-.12-.03-.23,0-.35.03-.11.09-.21.18-.28.09-.08.22-.12.39-.12h3.86c.18,0,.32.04.41.12.09.08.15.17.18.28.03.11.03.23,0,.35-.03.12-.08.22-.15.3-.1.13-.19.44-.26.94-.08.5-.14,1.12-.18,1.85-.04.73-.07,1.52-.07,2.38,0,.86,0,1.7,0,2.53.01.62.06,1.04.14,1.28s.17.36.28.36.23-.1.37-.29c.13-.2.24-.41.33-.65l1.43-3.91c.1-.27.23-.46.39-.59s.33-.19.51-.19c.17,0,.33.06.49.19s.29.32.39.59l1.43,3.91c.08.24.19.46.33.65.13.2.25.29.37.29s.21-.12.28-.36c.08-.24.12-.67.14-1.28.01-.83.01-1.67,0-2.53s-.04-1.66-.08-2.38c-.04-.73-.1-1.34-.17-1.85s-.15-.82-.25-.94c-.06-.08-.1-.19-.14-.3-.04-.12-.04-.23,0-.35.03-.11.09-.21.18-.28.09-.08.23-.12.41-.12h3.86c.17,0,.3.04.39.12.09.08.15.17.18.28.03.11.03.23,0,.35-.03.12-.08.22-.15.3-.08.1-.15.34-.21.73-.06.39-.11.88-.15,1.45s-.07,1.21-.08,1.92-.02,1.42-.02,2.15,0,1.45.02,2.15.04,1.35.08,1.92.09,1.06.15,1.45c.06.39.13.64.21.74.07.08.12.19.15.3.03.12.03.24,0,.35-.03.11-.09.21-.18.28-.09.08-.22.12-.39.12h-2.41c-.39,0-.72-.02-.98-.05-.26-.04-.48-.1-.66-.2s-.33-.24-.44-.42c-.11-.18-.21-.43-.29-.74Z"/>
          <path class="cls-1" d="m47.04,62.74c.24.56.58.97,1.04,1.24.46.27.93.4,1.44.4.43,0,.85-.09,1.24-.28.39-.19.72-.47.99-.83.1-.15.19-.23.27-.23.07,0,.12.06.15.18.03.12.03.26,0,.43-.06.42-.21.78-.47,1.09-.26.31-.57.57-.93.78s-.77.37-1.22.47c-.45.1-.9.16-1.34.16-.84,0-1.57-.15-2.17-.44-.61-.29-1.12-.68-1.52-1.16-.41-.48-.71-1.02-.9-1.64s-.29-1.24-.29-1.87.1-1.27.29-1.88c.2-.61.5-1.15.9-1.63.41-.48.91-.86,1.52-1.16.61-.29,1.33-.44,2.17-.44s1.61.16,2.21.48c.61.32,1.07.73,1.38,1.22.31.49.46,1.02.45,1.6,0,.57-.2,1.11-.57,1.62s-.94.93-1.7,1.29c-.76.36-1.74.56-2.93.6Zm2.46-3.55c.06-.29.08-.58.07-.87s-.05-.54-.14-.76-.2-.4-.36-.54c-.15-.14-.35-.21-.59-.21-.21,0-.41.07-.59.21-.18.14-.35.32-.49.55-.15.22-.27.48-.38.77-.1.29-.19.58-.26.89-.2.94-.21,1.62-.03,2.04s.42.63.75.63c.18,0,.38-.06.58-.19.2-.13.4-.31.59-.55.19-.24.36-.52.51-.85.15-.33.27-.7.34-1.12Z"/>
          <path class="cls-11" d="m60.04,65.41v-.02l-.27.13c-.34.15-.72.3-1.15.43-.43.13-.89.2-1.37.2-.74,0-1.37-.1-1.87-.29-.5-.2-.91-.45-1.23-.77-.32-.31-.54-.68-.68-1.09s-.21-.83-.21-1.25c0-.45.07-.89.2-1.33.13-.44.36-.84.67-1.19.32-.35.73-.64,1.24-.86.51-.22,1.14-.34,1.88-.34.41,0,.8.07,1.19.2.38.13.7.32.96.56-.1-.53-.23-.97-.41-1.32-.18-.35-.37-.63-.59-.83-.22-.2-.45-.35-.69-.43s-.49-.13-.72-.13h-.25c-.08,0-.17.01-.25.04-.43.08-.78.13-1.05.13-.32,0-.53-.05-.63-.14-.1-.09-.15-.21-.15-.35,0-.15.08-.29.23-.4.15-.11.36-.2.62-.26.26-.06.56-.11.89-.14s.69-.04,1.07-.04c1.19,0,2.13.11,2.82.34.69.22,1.22.54,1.58.96.36.41.59.91.71,1.49s.21,1.22.27,1.91c.06.69.13,1.44.21,2.24.08.8.25,1.62.54,2.48.1.29.05.5-.14.63-.19.13-.46.19-.81.19-.38,0-.8-.07-1.28-.2-.48-.13-.92-.31-1.32-.54Zm-.48-2.69c0-.45-.04-.85-.13-1.21-.08-.36-.19-.66-.33-.9s-.29-.43-.46-.56c-.18-.13-.35-.19-.54-.19-.34,0-.64.23-.9.68-.27.46-.4,1.19-.4,2.2,0,.46.04.85.12,1.17.08.32.18.57.31.77s.28.34.45.43.34.14.53.14c.17,0,.33-.04.48-.13.15-.08.29-.22.42-.42.13-.2.23-.45.31-.78s.13-.72.13-1.2Z"/>
          <path class="cls-9" d="m69.99,64.57c.15-.08.29-.13.4-.13.13,0,.22.04.29.11s.11.15.13.24c.01.09,0,.19-.05.3-.05.11-.14.21-.26.29-.41.28-.82.49-1.23.62-.41.13-.82.2-1.23.2-.6,0-1.1-.11-1.48-.34-.39-.22-.69-.52-.92-.89-.23-.37-.4-.79-.5-1.27-.11-.48-.18-.97-.21-1.48-.04-.51-.04-1.02-.02-1.52.02-.5.03-.96.03-1.37.01-1.12.01-1.95,0-2.48h-1.11c-.18,0-.27-.1-.27-.29v-.36c0-.11.07-.21.2-.28.13-.08.24-.15.33-.22l3.34-2.52c.14-.07.28-.1.42-.1.15,0,.29.04.4.12.11.08.17.2.17.37,0,.46,0,.88,0,1.26,0,.38-.01.75-.01,1.11h2.1c.18,0,.27.09.27.27v.36c0,.2-.09.29-.27.29h-2.1v2.6c0,.15,0,.39-.02.71-.01.32-.02.68-.02,1.07s.01.79.04,1.2.08.78.17,1.12.2.62.34.84c.14.22.33.33.57.33.18,0,.36-.06.55-.17Z"/>
          <path class="cls-13" d="m75.68,55.87v.86c.32-.25.7-.45,1.13-.61s.9-.23,1.39-.23c1.01,0,1.79.19,2.35.58.56.38.98.88,1.26,1.47s.46,1.26.53,1.98c.07.73.11,1.44.13,2.12.01.69.04,1.31.07,1.87s.16.97.37,1.24c.07.07.12.16.14.27.02.11.02.22,0,.33-.02.11-.07.19-.16.26-.08.07-.2.11-.36.11h-3.53c-.17,0-.29-.04-.38-.11-.08-.07-.14-.16-.16-.26-.02-.1-.02-.21.01-.33.03-.11.07-.2.13-.27.08-.11.16-.39.23-.83.07-.44.12-.96.15-1.56.03-.6.02-1.24-.01-1.92-.04-.68-.12-1.3-.25-1.88s-.33-1.05-.58-1.42c-.25-.37-.58-.56-.99-.56s-.7.19-.93.57c-.23.38-.4.85-.49,1.43-.1.57-.15,1.2-.15,1.88s.02,1.32.07,1.93c.05.61.12,1.13.21,1.56.09.43.17.7.24.8.06.07.1.16.13.27.03.11.03.22.01.33-.02.11-.07.19-.16.26-.08.07-.21.11-.38.11h-3.53c-.17,0-.29-.04-.38-.11-.08-.07-.14-.16-.16-.26-.02-.1-.02-.21.01-.33.03-.11.07-.2.13-.27.06-.07.11-.3.17-.7.06-.4.1-.9.14-1.5.04-.6.07-1.28.09-2.04.03-.76.05-1.53.06-2.32s.01-1.57,0-2.33c-.01-.76-.04-1.46-.07-2.09-.04-.63-.08-1.16-.15-1.59-.06-.43-.14-.7-.24-.83-.18-.22-.21-.4-.07-.53.13-.13.33-.22.59-.28s.53-.1.82-.12c.29-.01.49-.02.62-.02.25,0,.5.02.74.06.24.04.45.12.63.22.18.1.33.26.44.45.11.2.17.45.17.76-.01.52-.02,1.08-.02,1.7v1.87Z"/>
          <path class="cls-3" d="m87.73,62.74c.24.56.58.97,1.04,1.24.46.27.93.4,1.44.4.43,0,.85-.09,1.24-.28.39-.19.72-.47.99-.83.1-.15.19-.23.27-.23.07,0,.12.06.15.18.03.12.03.26,0,.43-.06.42-.21.78-.47,1.09-.26.31-.57.57-.93.78s-.77.37-1.22.47c-.45.1-.9.16-1.34.16-.84,0-1.57-.15-2.17-.44-.61-.29-1.12-.68-1.52-1.16-.41-.48-.71-1.02-.9-1.64s-.29-1.24-.29-1.87.1-1.27.29-1.88c.2-.61.5-1.15.9-1.63.41-.48.91-.86,1.52-1.16.61-.29,1.33-.44,2.17-.44s1.61.16,2.21.48c.61.32,1.07.73,1.38,1.22.31.49.46,1.02.45,1.6,0,.57-.2,1.11-.57,1.62s-.94.93-1.7,1.29c-.76.36-1.74.56-2.93.6Zm2.46-3.55c.06-.29.08-.58.07-.87s-.05-.54-.14-.76-.2-.4-.36-.54c-.15-.14-.35-.21-.59-.21-.21,0-.41.07-.59.21-.18.14-.35.32-.49.55-.15.22-.27.48-.38.77-.1.29-.19.58-.26.89-.2.94-.21,1.62-.03,2.04s.42.63.75.63c.18,0,.38-.06.58-.19.2-.13.4-.31.59-.55.19-.24.36-.52.51-.85.15-.33.27-.7.34-1.12Z"/>
          <path class="cls-2" d="m98.61,65.16c.06.07.1.16.13.27.03.11.03.22.01.33-.02.11-.07.19-.16.26-.08.07-.21.11-.38.11h-3.53c-.17,0-.29-.04-.38-.11-.08-.07-.14-.16-.16-.26-.02-.1-.02-.21.01-.33.03-.11.07-.2.13-.27.08-.1.16-.35.22-.76.06-.41.12-.89.16-1.45.04-.56.07-1.16.08-1.81.01-.64.01-1.26-.01-1.85-.02-.59-.07-1.11-.15-1.55s-.18-.75-.3-.9c-.18-.24-.21-.42-.07-.55.13-.13.33-.22.59-.28.26-.06.53-.1.82-.12.29-.01.49-.02.62-.02.42,0,.81.06,1.17.19.36.13.6.38.72.76.34-.34.7-.58,1.1-.72.4-.15.8-.22,1.21-.22.59,0,1.12.14,1.58.43.47.29.76.67.87,1.14.04.18.01.39-.08.63-.1.24-.23.47-.4.69-.17.22-.36.41-.57.57s-.4.23-.57.23c-.24,0-.4-.15-.48-.46-.18-.76-.4-1.3-.64-1.64-.25-.34-.49-.5-.75-.5-.32,0-.61.26-.85.78-.25.52-.38,1.2-.39,2.06,0,.55,0,1.11.01,1.68,0,.57.02,1.11.05,1.62.03.5.07.94.14,1.31.06.37.14.62.24.75Z"/>
        </g>
      </g>
    </g>
  </g>
</svg>