<?xml version="1.0" encoding="UTF-8"?>
<svg id="Layer_2" data-name="Layer 2" xmlns="http://www.w3.org/2000/svg" viewBox="0 0 127.17 113">
  <defs>
    <style>
      .cls-1 {
        fill: #437dbc;
        stroke-width: 0px;
      }

      .cls-2 {
        fill: #fff;
      }

      .cls-2, .cls-3 {
        stroke: #fff;
        stroke-linecap: round;
        stroke-miterlimit: 10;
        stroke-width: 3px;
      }

      .cls-3 {
        fill: none;
      }
    </style>
  </defs>
  <g id="Layer_1-2" data-name="Layer 1">
    <g>
      <path class="cls-1" d="m113.59,33.4C113.08,14.9,97.87,0,79.24,0c-13.57,0-25.95,8.13-31.42,20.43-3.7-2.59-8.13-4-12.67-4-10.22,0-19.13,7.07-21.5,16.93C5.45,36.87,0,45.03,0,53.93c0,12.33,10.03,22.37,22.37,22.37h18.87v-3h-18.87c-10.68,0-19.37-8.69-19.37-19.37,0-7.94,5.02-15.21,12.49-18.07l.77-.3.16-.81c1.78-8.88,9.66-15.32,18.73-15.32,4.51,0,8.89,1.61,12.34,4.53l1.63,1.38.75-1.99c4.57-12.17,16.37-20.35,29.37-20.35,17.3,0,31.37,14.07,31.37,31.35v1.11s.97.37.97.37c7.53,2.84,12.6,10.12,12.6,18.11,0,10.68-8.69,19.37-19.37,19.37h-18.87v3h18.87c12.33,0,22.37-10.04,22.37-22.37,0-8.89-5.42-17.01-13.58-20.53Z"/>
      <circle class="cls-2" cx="45.06" cy="82.46" r="1.83"/>
      <circle class="cls-3" cx="61.37" cy="88.33" r="1.43"/>
      <circle class="cls-3" cx="77.02" cy="83.37" r="1.43"/>
      <circle class="cls-3" cx="44.28" cy="100.2" r="1.57"/>
      <circle class="cls-3" cx="55.76" cy="109.93" r="1.57"/>
      <circle class="cls-3" cx="71.15" cy="103.07" r="1.57"/>
      <circle class="cls-3" cx="85.67" cy="94.98" r="1.57"/>
      <circle class="cls-3" cx="50.02" cy="68.89" r="1.57"/>
      <circle class="cls-3" cx="81.15" cy="64.2" r="1.57"/>
      <circle class="cls-3" cx="67.41" cy="73.93" r="1.57"/>
    </g>
  </g>
</svg>